<?xml version="1.0" encoding="UTF-8"?>
<svg width="69px" height="82px" viewBox="0 0 69 82" version="1.1" xmlns="http://www.w3.org/2000/svg" xmlns:xlink="http://www.w3.org/1999/xlink">
    <g id="Page-1" stroke="none" stroke-width="1" fill="none" fill-rule="evenodd">
        <g id="Desktop-HD-Copy-6" transform="translate(-69.000000, -2296.000000)">
            <g id="Group-6" transform="translate(69.700000, 2296.000000)">
                <g id="d-copy" transform="translate(0.000000, 4.800000)" fill="#000000" fill-rule="nonzero">
                    <path d="M62.322,0 L62.322,54.896 L47.282,54.896 L45.872,54.896 C44.1173333,69.372 36.8166667,76.61 23.97,76.61 C19.5833333,76.61 15.557,75.3253333 11.891,72.756 C8.225,70.1866667 5.32666667,66.7713333 3.196,62.51 C1.06533333,58.2486667 0,53.7366667 0,48.974 C0,43.0206667 1.04966667,37.6626667 3.149,32.9 C5.24833333,28.1373333 8.131,24.4086667 11.797,21.714 C15.463,19.0193333 19.5206667,17.672 23.97,17.672 C29.3593333,17.672 33.981,19.3953333 37.835,22.842 C40.4043333,25.1397778 43.24,26.5830043 46.342,27.1716797 L46.342,17.86 L46.342,0 L62.322,0 Z M29.798,60.724 C32.618,60.724 35.1873333,60.0503333 37.506,58.703 C39.8246667,57.3556667 41.642,55.6166667 42.958,53.486 C44.274,51.3553333 44.932,49.2246667 44.932,47.094 C44.932,44.838 44.274,42.7386667 42.958,40.796 C41.642,38.8533333 39.8403333,37.318 37.553,36.19 C35.2656667,35.062 32.6806667,34.498 29.798,34.498 C25.474,34.498 22.0116667,35.767 19.411,38.305 C16.8103333,40.843 15.51,44.086 15.51,48.034 C15.51,50.3526667 16.1053333,52.4833333 17.296,54.426 C18.4866667,56.3686667 20.163,57.904 22.325,59.032 C24.487,60.16 26.978,60.724 29.798,60.724 Z" id="Shape"></path>
                </g>
                <g id="d" transform="translate(5.000000, 0.000000)" fill="#FF0DFF" fill-rule="nonzero">
                    <path d="M62.322,0 L62.322,54.896 L47.282,54.896 L45.9331787,55 C44.178512,69.476 36.8166667,76.61 23.97,76.61 C19.5833333,76.61 15.557,75.3253333 11.891,72.756 C8.225,70.1866667 5.32666667,66.7713333 3.196,62.51 C1.06533333,58.2486667 0,53.7366667 0,48.974 C0,43.0206667 1.04966667,37.6626667 3.149,32.9 C5.24833333,28.1373333 8.131,24.4086667 11.797,21.714 C15.463,19.0193333 19.5206667,17.672 23.97,17.672 C29.3593333,17.672 33.981,19.3953333 37.835,22.842 C41.689,26.2886667 44.2426667,31.2706667 45.496,37.788 L47.282,37.788 L46.342,17.86 L46.342,0 L62.322,0 Z M29.798,60.724 C32.618,60.724 35.1873333,60.0503333 37.506,58.703 C39.8246667,57.3556667 41.642,55.6166667 42.958,53.486 C44.274,51.3553333 44.932,49.2246667 44.932,47.094 C44.932,44.838 44.274,42.7386667 42.958,40.796 C41.642,38.8533333 39.8403333,37.318 37.553,36.19 C35.2656667,35.062 32.6806667,34.498 29.798,34.498 C25.474,34.498 22.0116667,35.767 19.411,38.305 C16.8103333,40.843 15.51,44.086 15.51,48.034 C15.51,50.3526667 16.1053333,52.4833333 17.296,54.426 C18.4866667,56.3686667 20.163,57.904 22.325,59.032 C24.487,60.16 26.978,60.724 29.798,60.724 Z" id="Shape"></path>
                </g>
                <polygon id="Rectangle-Copy-11" fill="#FFF55C" points="52.282 37.788 67.322 34.498 67.3 55 51.3 55"></polygon>
            </g>
        </g>
    </g>
</svg>